<svg width="447" height="483" viewBox="0 0 447 483" fill="none" xmlns="http://www.w3.org/2000/svg">
<path d="M23.6855 424.355V406.801H30.5352V424.355H47.5977V431.123H30.5352V448.678H23.6855V431.123H6.62305V424.355H23.6855ZM63.2656 391.912H92.7969L91.6074 399.131H70.0742L68.6387 412.297C72.4121 412.297 75.8027 412.721 78.8105 413.568C81.8184 414.389 84.3613 415.551 86.4395 417.055C88.5449 418.559 90.1582 420.363 91.2793 422.469C92.4004 424.574 92.9609 426.912 92.9609 429.482C92.9609 431.014 92.7285 432.641 92.2637 434.363C91.8262 436.059 91.0879 437.74 90.0488 439.408C89.0371 441.076 87.7109 442.676 86.0703 444.207C84.4297 445.711 82.4199 447.051 80.041 448.227C77.6621 449.375 74.873 450.291 71.6738 450.975C68.502 451.658 64.8789 452 60.8047 452V444.781C64.9336 444.781 68.3789 444.412 71.1406 443.674C73.9297 442.908 76.1582 441.896 77.8262 440.639C79.4941 439.354 80.6836 437.904 81.3945 436.291C82.1055 434.65 82.4609 432.941 82.4609 431.164C82.4609 429.168 82.0645 427.445 81.2715 425.996C80.5059 424.547 79.3984 423.344 77.9492 422.387C76.5273 421.43 74.791 420.719 72.7402 420.254C70.7168 419.789 68.4609 419.557 65.9727 419.557H60.4355L63.2656 391.912ZM143.287 422.387C143.287 418.641 142.959 415.277 142.303 412.297C141.646 409.316 140.703 406.801 139.473 404.75C138.242 402.672 136.752 401.086 135.002 399.992C133.279 398.871 131.338 398.311 129.178 398.311C127.127 398.311 125.254 398.83 123.559 399.869C121.863 400.881 120.414 402.371 119.211 404.34C118.035 406.281 117.119 408.688 116.463 411.559C115.807 414.43 115.479 417.711 115.479 421.402C115.479 425.148 115.807 428.512 116.463 431.492C117.146 434.473 118.104 437.016 119.334 439.121C120.564 441.199 122.055 442.799 123.805 443.92C125.555 445.041 127.51 445.602 129.67 445.602C131.721 445.602 133.58 445.082 135.248 444.043C136.943 443.004 138.379 441.5 139.555 439.531C140.758 437.562 141.674 435.143 142.303 432.271C142.959 429.373 143.287 426.078 143.287 422.387ZM153.91 420.828C153.91 425.75 153.24 430.193 151.9 434.158C150.588 438.096 148.77 441.445 146.445 444.207C144.148 446.969 141.441 449.102 138.324 450.605C135.207 452.082 131.857 452.82 128.275 452.82C124.748 452.82 121.549 452.109 118.678 450.688C115.807 449.266 113.346 447.256 111.295 444.658C109.244 442.061 107.658 438.93 106.537 435.266C105.443 431.602 104.896 427.527 104.896 423.043C104.896 418.094 105.553 413.65 106.865 409.713C108.205 405.748 110.023 402.385 112.32 399.623C114.645 396.861 117.352 394.756 120.441 393.307C123.559 391.83 126.895 391.092 130.449 391.092C133.977 391.092 137.176 391.803 140.047 393.225C142.945 394.646 145.42 396.656 147.471 399.254C149.521 401.852 151.107 404.982 152.229 408.646C153.35 412.283 153.91 416.344 153.91 420.828Z" fill="#FFD500" fill-opacity="0.2"/>
<path d="M56.9141 334.773V313.039H65.3945V334.773H86.5195V343.152H65.3945V364.887H56.9141V343.152H35.7891V334.773H56.9141ZM118.715 369V309.383H98.3516V303.035C101.635 303.035 104.598 302.849 107.238 302.477C109.913 302.104 112.316 301.562 114.449 300.852C116.582 300.141 118.478 299.26 120.137 298.211C121.796 297.161 123.285 295.96 124.605 294.605H131.309V369H118.715ZM197.172 332.336C197.172 327.698 196.766 323.534 195.953 319.844C195.141 316.154 193.973 313.039 192.449 310.5C190.926 307.927 189.081 305.964 186.914 304.609C184.781 303.221 182.378 302.527 179.703 302.527C177.164 302.527 174.845 303.171 172.746 304.457C170.647 305.71 168.853 307.555 167.363 309.992C165.908 312.396 164.773 315.375 163.961 318.93C163.148 322.484 162.742 326.547 162.742 331.117C162.742 335.755 163.148 339.919 163.961 343.609C164.807 347.299 165.992 350.448 167.516 353.055C169.039 355.628 170.884 357.608 173.051 358.996C175.217 360.384 177.638 361.078 180.312 361.078C182.852 361.078 185.154 360.435 187.219 359.148C189.318 357.862 191.095 356 192.551 353.562C194.04 351.125 195.174 348.129 195.953 344.574C196.766 340.986 197.172 336.906 197.172 332.336ZM210.324 330.406C210.324 336.5 209.495 342.001 207.836 346.91C206.211 351.785 203.96 355.932 201.082 359.352C198.238 362.771 194.887 365.411 191.027 367.273C187.168 369.102 183.021 370.016 178.586 370.016C174.219 370.016 170.258 369.135 166.703 367.375C163.148 365.615 160.102 363.126 157.562 359.91C155.023 356.694 153.06 352.818 151.672 348.281C150.318 343.745 149.641 338.701 149.641 333.148C149.641 327.021 150.453 321.52 152.078 316.645C153.737 311.736 155.988 307.572 158.832 304.152C161.71 300.733 165.061 298.126 168.887 296.332C172.746 294.504 176.876 293.59 181.277 293.59C185.645 293.59 189.605 294.47 193.16 296.23C196.749 297.991 199.812 300.479 202.352 303.695C204.891 306.911 206.854 310.788 208.242 315.324C209.63 319.827 210.324 324.854 210.324 330.406ZM271.719 332.336C271.719 327.698 271.312 323.534 270.5 319.844C269.688 316.154 268.52 313.039 266.996 310.5C265.473 307.927 263.628 305.964 261.461 304.609C259.328 303.221 256.924 302.527 254.25 302.527C251.711 302.527 249.392 303.171 247.293 304.457C245.194 305.71 243.4 307.555 241.91 309.992C240.454 312.396 239.32 315.375 238.508 318.93C237.695 322.484 237.289 326.547 237.289 331.117C237.289 335.755 237.695 339.919 238.508 343.609C239.354 347.299 240.539 350.448 242.062 353.055C243.586 355.628 245.431 357.608 247.598 358.996C249.764 360.384 252.185 361.078 254.859 361.078C257.398 361.078 259.701 360.435 261.766 359.148C263.865 357.862 265.642 356 267.098 353.562C268.587 351.125 269.721 348.129 270.5 344.574C271.312 340.986 271.719 336.906 271.719 332.336ZM284.871 330.406C284.871 336.5 284.042 342.001 282.383 346.91C280.758 351.785 278.507 355.932 275.629 359.352C272.785 362.771 269.434 365.411 265.574 367.273C261.715 369.102 257.568 370.016 253.133 370.016C248.766 370.016 244.805 369.135 241.25 367.375C237.695 365.615 234.648 363.126 232.109 359.91C229.57 356.694 227.607 352.818 226.219 348.281C224.865 343.745 224.188 338.701 224.188 333.148C224.188 327.021 225 321.52 226.625 316.645C228.284 311.736 230.535 307.572 233.379 304.152C236.257 300.733 239.608 298.126 243.434 296.332C247.293 294.504 251.423 293.59 255.824 293.59C260.191 293.59 264.152 294.47 267.707 296.23C271.296 297.991 274.359 300.479 276.898 303.695C279.438 306.911 281.401 310.788 282.789 315.324C284.177 319.827 284.871 324.854 284.871 330.406Z" fill="#FFD500" fill-opacity="0.3"/>
<path d="M74.7344 225.191V199.277H84.8457V225.191H110.033V235.182H84.8457V261.096H74.7344V235.182H49.5469V225.191H74.7344ZM125.836 261.52C130.922 256.595 135.443 252.034 139.398 247.836C143.395 243.598 146.866 239.662 149.812 236.029C152.799 232.396 155.322 229.026 157.381 225.918C159.439 222.77 161.115 219.823 162.406 217.078C163.698 214.333 164.626 211.77 165.191 209.389C165.757 206.967 166.039 204.646 166.039 202.426C166.039 199.641 165.575 197.279 164.646 195.342C163.758 193.404 162.548 191.85 161.014 190.68C159.52 189.469 157.805 188.601 155.867 188.076C153.97 187.551 152.012 187.289 149.994 187.289C148.42 187.289 146.765 187.43 145.029 187.713C143.294 187.995 141.558 188.399 139.822 188.924C138.127 189.408 136.472 189.993 134.857 190.68C133.283 191.326 131.83 192.032 130.498 192.799V184.807C134.01 182.143 138.006 180.023 142.486 178.449C146.967 176.875 151.508 176.088 156.109 176.088C159.783 176.088 163.193 176.633 166.342 177.723C169.49 178.772 172.195 180.306 174.455 182.324C176.756 184.302 178.552 186.704 179.844 189.529C181.135 192.355 181.781 195.544 181.781 199.096C181.781 202.89 181.014 206.846 179.48 210.963C177.987 215.08 175.686 219.439 172.578 224.041C169.51 228.643 165.656 233.547 161.014 238.754C156.372 243.921 150.923 249.451 144.666 255.344H184.99L182.932 266H125.836V261.52ZM258.676 222.285C258.676 216.755 258.191 211.79 257.223 207.391C256.254 202.991 254.861 199.277 253.045 196.25C251.229 193.182 249.029 190.841 246.445 189.227C243.902 187.572 241.036 186.744 237.848 186.744C234.82 186.744 232.055 187.511 229.553 189.045C227.05 190.538 224.911 192.738 223.135 195.645C221.399 198.51 220.047 202.062 219.078 206.301C218.109 210.539 217.625 215.383 217.625 220.832C217.625 226.362 218.109 231.327 219.078 235.727C220.087 240.126 221.5 243.88 223.316 246.988C225.133 250.056 227.333 252.417 229.916 254.072C232.499 255.727 235.385 256.555 238.574 256.555C241.602 256.555 244.346 255.788 246.809 254.254C249.311 252.72 251.43 250.5 253.166 247.594C254.942 244.688 256.294 241.115 257.223 236.877C258.191 232.598 258.676 227.734 258.676 222.285ZM274.357 219.984C274.357 227.25 273.368 233.809 271.391 239.662C269.453 245.475 266.769 250.419 263.338 254.496C259.947 258.573 255.951 261.721 251.35 263.941C246.748 266.121 241.803 267.211 236.516 267.211C231.309 267.211 226.586 266.161 222.348 264.062C218.109 261.964 214.477 258.997 211.449 255.162C208.422 251.327 206.081 246.706 204.426 241.297C202.811 235.888 202.004 229.874 202.004 223.254C202.004 215.948 202.973 209.389 204.91 203.576C206.888 197.723 209.572 192.758 212.963 188.682C216.394 184.605 220.39 181.497 224.951 179.357C229.553 177.178 234.477 176.088 239.725 176.088C244.932 176.088 249.654 177.137 253.893 179.236C258.171 181.335 261.824 184.302 264.852 188.137C267.879 191.971 270.22 196.593 271.875 202.002C273.53 207.37 274.357 213.365 274.357 219.984ZM347.559 222.285C347.559 216.755 347.074 211.79 346.105 207.391C345.137 202.991 343.744 199.277 341.928 196.25C340.111 193.182 337.911 190.841 335.328 189.227C332.785 187.572 329.919 186.744 326.73 186.744C323.703 186.744 320.938 187.511 318.436 189.045C315.933 190.538 313.794 192.738 312.018 195.645C310.282 198.51 308.93 202.062 307.961 206.301C306.992 210.539 306.508 215.383 306.508 220.832C306.508 226.362 306.992 231.327 307.961 235.727C308.97 240.126 310.383 243.88 312.199 246.988C314.016 250.056 316.215 252.417 318.799 254.072C321.382 255.727 324.268 256.555 327.457 256.555C330.484 256.555 333.229 255.788 335.691 254.254C338.194 252.72 340.313 250.5 342.049 247.594C343.825 244.688 345.177 241.115 346.105 236.877C347.074 232.598 347.559 227.734 347.559 222.285ZM363.24 219.984C363.24 227.25 362.251 233.809 360.273 239.662C358.336 245.475 355.652 250.419 352.221 254.496C348.83 258.573 344.834 261.721 340.232 263.941C335.631 266.121 330.686 267.211 325.398 267.211C320.191 267.211 315.469 266.161 311.23 264.062C306.992 261.964 303.359 258.997 300.332 255.162C297.305 251.327 294.964 246.706 293.309 241.297C291.694 235.888 290.887 229.874 290.887 223.254C290.887 215.948 291.855 209.389 293.793 203.576C295.771 197.723 298.455 192.758 301.846 188.682C305.277 184.605 309.273 181.497 313.834 179.357C318.436 177.178 323.36 176.088 328.607 176.088C333.814 176.088 338.537 177.137 342.775 179.236C347.054 181.335 350.707 184.302 353.734 188.137C356.762 191.971 359.103 196.593 360.758 202.002C362.413 207.37 363.24 213.365 363.24 219.984Z" fill="#FFD500" fill-opacity="0.4"/>
<path d="M110.852 95.6094V65.5156H122.594V95.6094H151.844V107.211H122.594V137.305H110.852V107.211H81.6016V95.6094H110.852ZM178.703 39.9922H229.328L227.289 52.3672H190.375L187.914 74.9375C194.383 74.9375 200.195 75.6641 205.352 77.1172C210.508 78.5234 214.867 80.5156 218.43 83.0938C222.039 85.6719 224.805 88.7656 226.727 92.375C228.648 95.9844 229.609 99.9922 229.609 104.398C229.609 107.023 229.211 109.812 228.414 112.766C227.664 115.672 226.398 118.555 224.617 121.414C222.883 124.273 220.609 127.016 217.797 129.641C214.984 132.219 211.539 134.516 207.461 136.531C203.383 138.5 198.602 140.07 193.117 141.242C187.68 142.414 181.469 143 174.484 143V130.625C181.562 130.625 187.469 129.992 192.203 128.727C196.984 127.414 200.805 125.68 203.664 123.523C206.523 121.32 208.562 118.836 209.781 116.07C211 113.258 211.609 110.328 211.609 107.281C211.609 103.859 210.93 100.906 209.57 98.4219C208.258 95.9375 206.359 93.875 203.875 92.2344C201.438 90.5938 198.461 89.375 194.945 88.5781C191.477 87.7812 187.609 87.3828 183.344 87.3828H173.852L178.703 39.9922ZM315.883 92.2344C315.883 85.8125 315.32 80.0469 314.195 74.9375C313.07 69.8281 311.453 65.5156 309.344 62C307.234 58.4375 304.68 55.7188 301.68 53.8438C298.727 51.9219 295.398 50.9609 291.695 50.9609C288.18 50.9609 284.969 51.8516 282.062 53.6328C279.156 55.3672 276.672 57.9219 274.609 61.2969C272.594 64.625 271.023 68.75 269.898 73.6719C268.773 78.5938 268.211 84.2188 268.211 90.5469C268.211 96.9688 268.773 102.734 269.898 107.844C271.07 112.953 272.711 117.312 274.82 120.922C276.93 124.484 279.484 127.227 282.484 129.148C285.484 131.07 288.836 132.031 292.539 132.031C296.055 132.031 299.242 131.141 302.102 129.359C305.008 127.578 307.469 125 309.484 121.625C311.547 118.25 313.117 114.102 314.195 109.18C315.32 104.211 315.883 98.5625 315.883 92.2344ZM334.094 89.5625C334.094 98 332.945 105.617 330.648 112.414C328.398 119.164 325.281 124.906 321.297 129.641C317.359 134.375 312.719 138.031 307.375 140.609C302.031 143.141 296.289 144.406 290.148 144.406C284.102 144.406 278.617 143.188 273.695 140.75C268.773 138.312 264.555 134.867 261.039 130.414C257.523 125.961 254.805 120.594 252.883 114.312C251.008 108.031 250.07 101.047 250.07 93.3594C250.07 84.875 251.195 77.2578 253.445 70.5078C255.742 63.7109 258.859 57.9453 262.797 53.2109C266.781 48.4766 271.422 44.8672 276.719 42.3828C282.062 39.8516 287.781 38.5859 293.875 38.5859C299.922 38.5859 305.406 39.8047 310.328 42.2422C315.297 44.6797 319.539 48.125 323.055 52.5781C326.57 57.0312 329.289 62.3984 331.211 68.6797C333.133 74.9141 334.094 81.875 334.094 89.5625ZM419.102 92.2344C419.102 85.8125 418.539 80.0469 417.414 74.9375C416.289 69.8281 414.672 65.5156 412.562 62C410.453 58.4375 407.898 55.7188 404.898 53.8438C401.945 51.9219 398.617 50.9609 394.914 50.9609C391.398 50.9609 388.188 51.8516 385.281 53.6328C382.375 55.3672 379.891 57.9219 377.828 61.2969C375.812 64.625 374.242 68.75 373.117 73.6719C371.992 78.5938 371.43 84.2188 371.43 90.5469C371.43 96.9688 371.992 102.734 373.117 107.844C374.289 112.953 375.93 117.312 378.039 120.922C380.148 124.484 382.703 127.227 385.703 129.148C388.703 131.07 392.055 132.031 395.758 132.031C399.273 132.031 402.461 131.141 405.32 129.359C408.227 127.578 410.688 125 412.703 121.625C414.766 118.25 416.336 114.102 417.414 109.18C418.539 104.211 419.102 98.5625 419.102 92.2344ZM437.312 89.5625C437.312 98 436.164 105.617 433.867 112.414C431.617 119.164 428.5 124.906 424.516 129.641C420.578 134.375 415.938 138.031 410.594 140.609C405.25 143.141 399.508 144.406 393.367 144.406C387.32 144.406 381.836 143.188 376.914 140.75C371.992 138.312 367.773 134.867 364.258 130.414C360.742 125.961 358.023 120.594 356.102 114.312C354.227 108.031 353.289 101.047 353.289 93.3594C353.289 84.875 354.414 77.2578 356.664 70.5078C358.961 63.7109 362.078 57.9453 366.016 53.2109C370 48.4766 374.641 44.8672 379.938 42.3828C385.281 39.8516 391 38.5859 397.094 38.5859C403.141 38.5859 408.625 39.8047 413.547 42.2422C418.516 44.6797 422.758 48.125 426.273 52.5781C429.789 57.0312 432.508 62.3984 434.43 68.6797C436.352 74.9141 437.312 81.875 437.312 89.5625Z" fill="#FFD500" fill-opacity="0.5"/>
</svg>
